<?xml version="1.0" standalone="no"?>
<!DOCTYPE svg PUBLIC "-//W3C//DTD SVG 20010904//EN"
 "http://www.w3.org/TR/2001/REC-SVG-20010904/DTD/svg10.dtd">
<svg version="1.0" xmlns="http://www.w3.org/2000/svg"
 width="512.000000pt" height="512.000000pt" viewBox="0 0 512.000000 512.000000"
 preserveAspectRatio="xMidYMid meet">
<metadata>
Created by potrace 1.14, written by Peter Selinger 2001-2017
</metadata>
<g transform="translate(0.000000,512.000000) scale(0.100000,-0.100000)"
fill="#000000" stroke="none">
<path d="M2370 5011 c-25 -4 -61 -16 -81 -27 -19 -11 -55 -23 -79 -27 -25 -3
-63 -15 -85 -27 -21 -11 -44 -20 -51 -20 -19 0 -97 -37 -133 -64 -28 -21 -41
-24 -76 -19 -38 5 -44 3 -61 -22 -11 -15 -30 -38 -43 -51 -23 -23 -18 -30 14
-25 6 1 0 -8 -11 -20 -23 -22 -44 -19 -44 7 0 16 -12 18 -26 5 -5 -6 -34 -17
-65 -25 -58 -15 -119 -42 -119 -52 0 -4 8 -3 18 1 9 4 44 14 76 21 48 12 61
12 68 2 13 -21 9 -31 -24 -71 -34 -38 -58 -48 -58 -23 0 31 -38 2 -59 -45 -23
-51 -41 -64 -41 -30 0 11 -4 22 -9 25 -4 3 -11 -35 -15 -85 -6 -73 -12 -99
-31 -128 -29 -41 -31 -63 -10 -81 21 -18 19 -37 -6 -51 -17 -8 -23 -8 -30 2
-4 7 -5 17 -3 21 3 4 1 8 -4 8 -10 0 -32 -44 -32 -64 0 -8 -18 -30 -41 -51
-24 -21 -38 -42 -35 -51 3 -7 -3 -18 -14 -24 -14 -7 -19 -20 -18 -45 1 -20 -6
-43 -15 -53 -10 -10 -17 -30 -17 -43 0 -14 -4 -29 -9 -34 -5 -6 -12 -20 -16
-32 -5 -18 -3 -22 10 -17 11 5 18 0 22 -15 3 -11 12 -21 19 -21 17 0 17 1 4
34 -8 21 -7 26 6 26 13 0 14 3 4 14 -9 12 -5 16 24 22 59 10 66 3 66 -69 0
-37 -5 -68 -12 -75 -17 -17 -16 -199 0 -229 7 -12 12 -48 12 -80 -1 -185 0
-206 14 -222 8 -9 17 -29 21 -46 8 -38 46 -147 55 -160 8 -11 -2 -90 -20 -150
-16 -54 -14 -94 7 -117 48 -53 62 -139 62 -388 1 -183 4 -215 25 -295 13 -49
27 -108 30 -130 4 -22 10 -51 13 -64 l6 -24 -169 8 c-181 7 -164 10 -290 -45
-49 -22 -210 -154 -260 -214 -19 -23 -51 -65 -72 -93 -76 -107 -217 -289 -251
-326 -46 -49 -157 -85 -202 -67 -40 17 -152 -13 -198 -53 -29 -24 -40 -28 -73
-24 l-38 5 0 -499 0 -499 1085 0 1085 0 4 23 c21 102 11 294 -24 442 -11 47
-20 94 -20 104 0 30 26 32 65 5 41 -27 55 -29 101 -12 27 9 37 9 58 -5 14 -9
32 -17 40 -17 8 0 32 -11 52 -25 37 -25 53 -25 112 -4 12 5 36 29 54 53 18 27
48 53 72 65 23 11 61 40 86 65 27 28 53 46 67 46 13 0 23 6 23 13 0 13 18 37
100 133 49 57 146 128 155 113 6 -9 112 94 152 147 12 16 35 43 52 59 17 17
31 37 31 46 0 27 130 212 130 186 0 -4 -18 -42 -41 -84 -58 -107 -109 -210
-109 -219 0 -4 11 3 25 16 14 13 25 28 25 34 0 6 8 25 17 41 19 33 87 160 132
246 16 31 46 82 65 115 20 32 36 66 36 74 0 8 7 28 15 44 8 15 15 35 15 42 0
8 4 14 8 14 5 0 23 37 41 82 18 46 41 102 52 126 10 23 19 49 19 57 0 8 10 19
22 26 19 10 20 9 13 -7 -5 -11 -9 -37 -11 -59 -1 -22 -7 -58 -14 -80 -23 -81
-29 -109 -24 -117 3 -5 2 -14 -3 -21 -11 -14 -30 -78 -37 -122 -3 -16 -10 -50
-16 -75 -6 -25 -13 -74 -15 -109 -2 -35 -9 -67 -15 -71 -7 -4 -10 -13 -9 -21
2 -13 0 -22 -21 -74 -4 -11 -13 -38 -20 -60 -14 -48 -111 -224 -188 -344 -58
-91 -86 -128 -247 -326 -224 -276 -290 -357 -295 -365 -3 -4 -25 -13 -50 -20
-25 -6 -80 -31 -122 -56 -43 -24 -88 -44 -101 -44 -22 0 -110 -51 -123 -71 -3
-5 88 -9 220 -9 l224 0 7 30 c4 17 13 30 20 30 9 0 12 -6 9 -15 -4 -8 -10 -15
-15 -15 -5 0 -9 -7 -9 -15 0 -13 125 -15 1065 -15 l1065 0 0 46 c0 63 -36 125
-138 241 -20 22 -59 71 -87 109 -27 37 -81 104 -120 150 -66 79 -185 283 -185
319 0 25 -66 158 -92 185 -13 14 -29 33 -34 42 -5 10 -38 49 -73 88 -92 102
-167 143 -268 149 -26 2 -110 160 -151 286 -11 33 -30 85 -43 115 -28 67 -31
166 -6 255 9 33 16 79 17 101 0 24 6 47 15 54 10 8 15 31 15 64 1 28 7 62 15
76 18 31 19 60 3 60 -19 0 -198 -192 -214 -230 l-15 -34 -23 40 c-15 27 -21
51 -19 74 12 106 13 118 13 353 0 87 3 163 6 169 3 5 14 8 24 5 10 -2 23 -1
30 3 11 7 12 17 9 75 -1 31 18 97 31 105 6 4 9 17 5 31 -4 18 0 31 19 49 15
13 26 30 26 37 0 8 16 31 35 51 19 20 35 40 35 44 0 4 16 12 36 17 28 8 45 7
70 -4 48 -20 42 -30 -15 -30 -35 0 -58 -6 -78 -21 -30 -22 -73 -90 -72 -114 0
-8 7 -1 16 15 29 55 105 101 148 91 11 -3 28 1 39 9 20 15 21 8 -9 185 -55
321 -63 411 -41 429 9 7 13 17 10 23 -3 5 -8 28 -10 51 -10 102 -29 205 -46
245 -10 24 -18 56 -18 71 0 15 -11 42 -24 59 -16 22 -25 52 -30 97 -6 63 -22
106 -69 191 -52 95 -155 203 -212 223 -22 7 -51 21 -65 31 -14 9 -42 23 -62
29 -20 7 -41 18 -48 26 -10 12 -42 21 -204 56 -42 9 -60 18 -64 32 -3 12 -10
16 -21 11 -21 -10 -100 -5 -122 6 -10 6 -25 7 -33 4 -9 -3 -24 -3 -33 1 -10 4
-28 8 -41 9 -13 1 -26 7 -30 13 -4 7 -32 14 -61 17 -30 3 -57 10 -61 16 -5 8
-22 9 -58 2 -45 -8 -70 -4 -92 15 -10 9 27 23 62 23 20 0 40 5 43 10 3 6 32
10 63 10 43 0 53 3 44 12 -12 12 -262 13 -309 1 -24 -6 -32 11 -11 23 29 18
-57 27 -142 15z m-360 -161 c-14 -10 -27 -17 -29 -15 -8 8 22 35 38 35 12 0
10 -5 -9 -20z m155 0 c4 -6 -8 -10 -28 -10 -21 0 -41 -7 -52 -20 -10 -11 -24
-20 -32 -20 -18 0 15 47 37 53 29 9 69 7 75 -3z m-216 -82 c-12 -20 -14 -21
-17 -5 -2 10 2 25 9 34 18 21 23 0 8 -29z m-89 22 c0 -5 -4 -10 -10 -10 -5 0
-10 5 -10 10 0 6 5 10 10 10 6 0 10 -4 10 -10z m1095 -10 c3 -5 1 -10 -4 -10
-6 0 -11 5 -11 10 0 6 2 10 4 10 3 0 8 -4 11 -10z m-1233 -115 c0 -5 -5 -11
-11 -13 -6 -2 -11 4 -11 13 0 9 5 15 11 13 6 -2 11 -8 11 -13z m1188 -15 c0
-5 -8 -10 -17 -10 -15 0 -16 2 -3 10 19 12 20 12 20 0z m431 -10 c27 -15 24
-30 -6 -30 -18 0 -25 5 -25 20 0 23 4 24 31 10z m-96 -10 c3 -5 2 -10 -4 -10
-5 0 -13 5 -16 10 -3 6 -2 10 4 10 5 0 13 -4 16 -10z m-707 -22 c-6 -18 -25
-20 -31 -3 -5 10 0 15 14 15 12 0 19 -5 17 -12z m862 8 c0 -11 -19 -15 -25 -6
-3 5 1 10 9 10 9 0 16 -2 16 -4z m-178 -38 c-9 -9 -15 -9 -24 0 -9 9 -7 12 12
12 19 0 21 -3 12 -12z m-1587 -88 c-17 -33 -25 -38 -25 -16 0 14 26 46 36 46
2 0 -2 -13 -11 -30z m1705 -5 c-17 -18 -34 -25 -62 -25 -21 0 -38 4 -38 9 0
11 68 39 99 40 l24 1 -23 -25z m-885 -16 c11 -17 -1 -21 -34 -14 -17 4 -29 11
-25 16 7 12 51 11 59 -2z m-925 -54 c0 -14 -4 -25 -10 -25 -5 0 -10 11 -10 25
0 14 5 25 10 25 6 0 10 -11 10 -25z m1864 -53 c5 -3 1 -9 -8 -14 -11 -6 -22
-6 -31 2 -29 24 1 33 39 12z m-864 -18 c0 -2 -15 -4 -32 -3 -27 0 -29 2 -13 8
18 8 45 4 45 -5z m150 7 c0 -12 -29 -23 -42 -15 -6 4 -5 10 3 15 18 11 39 11
39 0z m-254 -27 c-22 -8 -45 -13 -50 -10 -16 5 34 25 64 25 20 0 17 -3 -14
-15z m127 -11 c-7 -2 -19 -2 -25 0 -7 3 -2 5 12 5 14 0 19 -2 13 -5z m97 3 c0
-11 -19 -15 -25 -6 -3 5 1 10 9 10 9 0 16 -2 16 -4z m-620 -16 c13 -8 13 -10
-2 -10 -9 0 -20 5 -23 10 -8 13 5 13 25 0z m1757 4 c-3 -3 -12 -4 -19 -1 -8 3
-5 6 6 6 11 1 17 -2 13 -5z m-724 -11 c-7 -2 -19 -2 -25 0 -7 3 -2 5 12 5 14
0 19 -2 13 -5z m-1583 -33 c0 -21 -15 -27 -25 -10 -7 12 2 30 16 30 5 0 9 -9
9 -20z m1551 7 c-1 -12 -15 -9 -19 4 -3 6 1 10 8 8 6 -3 11 -8 11 -12z m142
-87 c11 0 17 -8 17 -25 0 -25 -13 -30 -60 -26 -30 3 -90 24 -90 33 0 16 32 21
42 7 7 -12 11 -11 21 4 8 11 19 16 32 13 11 -3 28 -6 38 -6z m-655 -85 c-4
-31 -17 -36 -32 -12 -8 14 -8 20 4 27 24 16 32 12 28 -15z m437 -55 c33 0 45
-4 42 -12 -5 -17 -48 -14 -131 9 -57 16 -66 22 -52 30 13 7 29 5 57 -8 21 -11
59 -19 84 -19z m-384 -39 c15 -14 30 -18 58 -14 32 4 38 2 49 -21 10 -22 18
-26 51 -26 29 0 44 6 54 21 12 17 28 21 90 23 58 3 77 0 81 -10 3 -8 14 -14
24 -14 11 0 25 -7 32 -15 6 -8 19 -14 28 -13 10 1 33 0 53 0 32 -2 37 -5 37
-28 0 -40 19 -52 33 -21 15 33 30 23 61 -37 12 -23 43 -62 69 -88 59 -58 119
-141 119 -166 0 -11 9 -29 20 -42 30 -34 35 -67 16 -89 -14 -16 -15 -27 -7
-77 6 -33 13 -70 17 -83 6 -20 4 -23 -9 -18 -9 3 -19 2 -22 -3 -4 -6 -2 -10 3
-10 5 0 7 -11 4 -25 -2 -14 0 -25 6 -25 5 0 17 -12 27 -26 16 -25 16 -25 -6
-22 -12 2 -24 -3 -26 -9 -3 -8 5 -13 20 -13 20 0 31 -10 51 -46 23 -42 25 -54
22 -137 -2 -63 1 -103 11 -126 10 -26 11 -36 2 -42 -17 -10 16 -95 47 -122 25
-21 31 -51 14 -62 -6 -4 -6 -12 2 -24 13 -22 3 -84 -17 -101 -7 -6 -11 -18 -8
-26 3 -9 -2 -14 -16 -14 -12 0 -21 -4 -21 -10 0 -5 -5 -10 -10 -10 -6 0 -10 8
-8 18 2 10 -3 17 -12 17 -10 0 -16 -12 -18 -32 -2 -18 -7 -33 -13 -33 -5 0 -9
-7 -9 -15 0 -9 -8 -19 -17 -22 -26 -10 -34 -25 -27 -55 6 -28 -5 -39 -40 -43
-11 -1 -24 -3 -28 -4 -14 -2 -8 -49 7 -55 8 -3 23 4 34 15 13 14 21 17 26 9 4
-7 2 -17 -4 -23 -17 -17 -13 -35 7 -33 12 1 16 -5 14 -23 -1 -14 3 -28 10 -32
9 -6 9 -11 -1 -23 -20 -24 -3 -39 35 -31 39 7 45 -5 12 -20 -18 -8 -23 -18
-24 -50 0 -54 -14 -124 -25 -131 -5 -3 -9 -27 -9 -53 0 -66 -53 -175 -81 -166
-22 7 -23 2 -8 -26 13 -25 -2 -73 -31 -105 -12 -11 -22 -31 -25 -43 -2 -12
-24 -45 -49 -74 -30 -33 -46 -61 -46 -78 0 -18 -6 -28 -20 -32 -13 -3 -20 -14
-20 -31 0 -15 -8 -31 -20 -38 -11 -7 -20 -19 -20 -26 0 -7 -7 -24 -16 -38 -13
-19 -20 -22 -30 -13 -8 6 -14 20 -14 30 0 10 -4 21 -10 24 -13 8 -13 58 0 71
7 7 8 19 1 37 -10 27 0 67 34 129 17 29 20 68 6 68 -12 0 -47 -48 -67 -92 -14
-31 -43 -76 -79 -123 -8 -10 -15 -31 -15 -45 0 -15 -9 -35 -20 -45 -11 -10
-20 -25 -20 -33 0 -25 -31 -52 -60 -52 -36 0 -52 -18 -39 -42 8 -15 7 -24 -4
-36 -8 -9 -22 -33 -31 -52 -27 -57 -44 -76 -58 -62 -8 8 -7 18 6 37 18 28 14
47 -6 27 -6 -6 -23 -8 -39 -5 -38 7 -89 -17 -89 -42 1 -19 1 -19 20 3 25 30
32 15 24 -53 l-7 -57 -23 29 c-13 15 -23 34 -24 41 -1 36 -50 -24 -50 -62 0
-9 -14 -22 -30 -31 -28 -15 -32 -14 -52 5 l-22 20 -19 -41 c-14 -31 -22 -39
-35 -34 -9 4 -32 7 -51 6 -22 -1 -41 5 -56 19 -12 11 -32 19 -45 18 -19 -2
-28 5 -40 30 -12 25 -18 30 -28 20 -17 -17 -39 15 -47 67 -9 62 -18 71 -44 44
l-21 -23 0 42 c0 30 -4 42 -15 42 -8 0 -12 6 -9 14 3 8 -3 16 -15 19 -12 3
-21 13 -21 22 0 9 -9 35 -20 57 -11 23 -20 48 -20 55 0 7 -9 21 -20 30 -11 10
-20 23 -20 30 0 7 -4 13 -9 13 -22 0 -125 162 -159 250 -5 14 -15 38 -21 53
-6 15 -11 39 -11 53 0 14 -9 42 -19 63 -12 22 -16 42 -11 47 5 5 5 30 -1 58
-6 33 -5 53 2 62 7 8 7 14 -1 19 -5 3 -10 1 -10 -6 0 -7 -3 -9 -6 -6 -4 4 -1
13 5 21 13 16 6 82 -11 103 -6 7 -12 46 -13 85 -2 43 -12 99 -24 134 -23 65
-26 99 -16 150 8 37 30 45 144 50 77 3 93 12 89 48 -3 22 -36 30 -55 15 -15
-13 -47 -4 -90 25 -38 25 -40 32 -13 39 13 3 18 11 14 20 -3 10 2 18 15 22 24
7 28 25 6 25 -20 0 -19 24 0 40 20 17 38 1 38 -35 0 -18 8 -30 28 -40 33 -17
49 -19 49 -5 0 5 -7 7 -15 4 -9 -4 -15 0 -15 9 0 16 49 37 97 40 21 2 29 8 31
25 4 25 30 30 38 7 4 -8 0 -22 -7 -31 -11 -14 -10 -15 11 -12 35 5 35 24 2 58
-33 33 -27 38 17 16 28 -15 51 -53 51 -85 0 -12 -12 -20 -37 -27 -32 -8 -38
-13 -35 -34 1 -13 -1 -31 -4 -40 -4 -8 -8 -26 -10 -40 -1 -14 -7 -79 -14 -144
-8 -80 -8 -121 -1 -125 24 -15 42 -113 22 -125 -14 -9 -22 -96 -9 -119 6 -12
25 -40 41 -61 25 -31 30 -47 28 -80 -3 -45 -13 -62 -30 -52 -8 5 -8 13 -1 26
6 12 6 21 1 25 -5 3 -16 -7 -23 -22 -10 -19 -21 -27 -35 -26 -12 1 -27 -4 -33
-12 -7 -8 -23 -15 -35 -15 -47 0 -50 -99 -4 -144 l29 -28 10 28 11 27 15 -21
c8 -12 29 -25 47 -30 30 -8 32 -11 33 -58 1 -103 31 -160 112 -215 44 -29 54
-32 149 -35 89 -4 106 -2 135 16 18 11 45 20 61 20 35 0 114 41 163 86 l39 34
-35 -20 c-87 -49 -110 -59 -165 -74 -76 -21 -177 -28 -234 -18 -39 6 -46 11
-53 39 -5 17 -20 41 -35 53 -22 17 -25 23 -13 30 20 13 37 12 45 0 4 -6 11 -7
17 -4 14 9 190 32 204 27 14 -5 142 36 150 48 8 13 87 53 100 51 6 -1 17 5 24
13 7 8 22 15 34 15 12 0 37 13 56 30 19 16 40 29 46 30 6 0 19 9 28 19 21 23
64 33 88 20 10 -6 19 -5 23 1 3 5 11 10 17 10 6 0 6 -6 -2 -15 -11 -13 -10
-18 8 -31 12 -8 22 -24 22 -35 0 -25 16 -24 31 3 15 28 6 133 -16 176 -9 18
-29 39 -44 46 -14 8 -38 25 -51 39 -14 13 -52 44 -85 68 -33 24 -69 52 -80 61
-11 10 -41 36 -68 59 -26 23 -51 39 -54 35 -8 -7 166 -183 222 -225 20 -14 26
-24 17 -28 -7 -2 -19 -11 -27 -20 -9 -8 -23 -12 -34 -8 -25 8 -35 -9 -16 -25
34 -28 1 -56 -56 -48 -19 2 -23 8 -21 29 1 15 -3 31 -10 36 -14 11 -68 24
-105 25 -12 0 -24 9 -29 22 -6 20 -7 19 -11 -6 -2 -16 -13 -30 -24 -33 -10 -4
-19 -12 -19 -18 0 -7 -5 -4 -10 5 -8 13 -63 48 -77 48 -1 0 -3 -11 -3 -25 0
-28 -3 -29 -30 -15 -13 7 -19 6 -24 -6 -8 -21 8 -48 44 -74 l30 -22 38 24 c20
13 46 23 57 23 15 0 21 8 23 34 l3 34 15 -28 c33 -65 12 -92 -79 -101 -80 -8
-97 -13 -97 -29 0 -8 -4 -15 -10 -15 -5 0 -10 5 -10 10 0 6 -5 10 -11 10 -5 0
-8 -4 -4 -9 18 -31 -91 -37 -118 -7 -15 16 -21 18 -36 9 -16 -10 -20 -7 -30
15 -11 22 -10 28 4 39 21 14 45 59 37 67 -3 3 -15 6 -26 6 -16 0 -10 7 24 30
25 16 52 30 60 30 8 0 21 4 29 9 12 8 12 12 2 24 -10 12 -6 19 23 36 40 25
116 49 134 43 6 -2 12 -10 12 -18 0 -21 17 -8 51 38 39 55 38 92 -6 143 -38
44 -48 30 -19 -26 8 -17 14 -42 12 -57 -3 -29 -5 -29 -118 -55 -96 -22 -151
-45 -185 -76 -26 -24 -36 -27 -77 -23 -28 2 -53 11 -63 22 -22 24 -30 127 -28
353 2 169 5 196 28 271 14 46 25 101 25 122 0 22 -1 56 0 76 0 32 -3 38 -24
44 -14 3 -30 12 -36 19 -5 7 -22 10 -35 7 -29 -5 -60 18 -69 52 -4 18 -11 21
-39 18 -24 -3 -41 3 -63 20 -16 13 -42 32 -57 42 -26 16 -31 16 -45 3 -11 -10
-34 -14 -67 -13 -27 2 -64 -2 -81 -7 -45 -14 -94 21 -94 66 0 39 9 51 38 54
14 2 22 -3 22 -13 0 -8 5 -12 10 -9 7 4 8 23 5 49 -5 33 -2 47 15 69 19 23 27
27 52 22 25 -6 29 -4 26 12 -2 10 -13 19 -26 21 -19 3 -22 9 -22 46 0 28 6 48
16 57 14 12 14 14 0 25 -12 8 -17 29 -18 68 -1 49 -4 56 -21 56 -20 0 -20 1
-2 20 18 20 18 21 -1 35 -16 12 -17 17 -6 34 15 25 16 51 2 51 -5 0 -10 -7
-10 -15 0 -8 -9 -20 -20 -27 -25 -16 -26 -37 -3 -54 20 -14 12 -30 -10 -21
-19 7 -32 58 -17 67 7 5 9 16 5 30 -9 29 3 110 17 110 6 0 8 -11 3 -27 -6 -24
-4 -25 10 -13 29 24 37 48 23 70 -11 18 -10 23 3 33 8 7 32 42 53 80 35 63 40
67 72 67 21 0 33 4 29 10 -3 6 -15 10 -27 10 -17 0 -18 2 -8 15 17 21 46 19
70 -5 22 -22 50 -22 203 -4 56 7 58 8 52 32 -4 16 -1 28 7 33 18 12 66 11 73
-1 3 -5 18 -10 32 -10 22 0 24 2 13 15 -7 9 -11 16 -9 18 39 22 49 26 49 17 0
-5 5 -10 11 -10 6 0 8 9 4 20 -5 15 -2 20 14 20 11 0 24 -7 29 -16 5 -9 23
-23 40 -30 27 -11 34 -11 46 2 8 7 21 11 29 8 8 -3 17 -1 21 4 3 5 34 8 69 6
35 -1 70 2 78 7 8 5 10 9 4 10 -10 0 23 17 38 18 4 1 17 -8 28 -18z m707 -13
c-3 -7 -11 -13 -18 -13 -7 0 -15 6 -17 13 -3 7 4 12 17 12 13 0 20 -5 18 -12z
m242 -283 c24 -25 36 -75 19 -75 -6 0 -16 15 -24 34 -8 19 -19 37 -25 41 -12
7 -13 25 -2 25 5 0 19 -11 32 -25z m-72 -21 c-10 -10 -28 6 -28 24 0 15 1 15
17 -1 9 -9 14 -19 11 -23z m-1908 -24 c0 -5 -4 -10 -10 -10 -5 0 -10 5 -10 10
0 6 5 10 10 10 6 0 10 -4 10 -10z m25 -940 c-3 -5 -11 -10 -16 -10 -6 0 -7 5
-4 10 3 6 11 10 16 10 6 0 7 -4 4 -10z m260 -49 c3 -5 1 -12 -5 -16 -5 -3 -10
1 -10 9 0 18 6 21 15 7z m1695 -287 c0 -8 -4 -12 -10 -9 -5 3 -10 10 -10 16 0
5 5 9 10 9 6 0 10 -7 10 -16z m9 -133 c-8 -17 -17 -31 -21 -31 -5 0 -8 -7 -8
-15 0 -8 -7 -15 -15 -15 -8 0 -15 9 -15 20 0 11 7 23 15 26 21 8 19 21 -4 27
-30 7 -16 45 18 49 35 4 48 -21 30 -61z m28 -168 c-3 -3 -11 -2 -17 2 -8 5 -7
11 2 22 12 15 13 14 16 -1 2 -10 1 -20 -1 -23z m158 -43 c-4 -12 -9 -19 -12
-17 -3 3 -2 15 2 27 4 12 9 19 12 17 3 -3 2 -15 -2 -27z m-1111 -312 c-9 -31
-14 -35 -24 -18 -5 9 -5 19 2 27 17 21 30 15 22 -9z m66 -109 c0 -25 -30 -32
-52 -12 -23 21 -19 36 13 43 25 7 39 -4 39 -31z m-107 12 c20 -8 23 -14 19
-43 -5 -36 -28 -68 -49 -68 -7 0 -13 -4 -13 -10 0 -5 -12 -13 -27 -16 -16 -4
-33 -11 -40 -16 -22 -17 -137 -37 -156 -26 -10 5 -30 5 -51 0 -45 -13 -89 7
-106 47 -18 43 -2 58 68 64 85 8 184 27 214 43 15 8 40 14 55 14 15 0 35 5 43
10 18 12 14 12 43 1z m-438 -11 c3 -5 -3 -10 -14 -10 -12 0 -21 5 -21 10 0 6
6 10 14 10 8 0 18 -4 21 -10z m1675 -119 c0 -12 -20 -25 -27 -18 -7 7 6 27 18
27 5 0 9 -4 9 -9z m-20 -82 c0 -17 -11 -47 -25 -67 -14 -20 -25 -44 -25 -53 0
-9 -7 -19 -15 -23 -8 -3 -15 -4 -15 -2 0 10 34 83 44 95 6 8 11 21 12 30 1 9
2 26 3 39 2 34 21 16 21 -19z m-1760 -857 c-24 -77 -60 -140 -60 -102 0 9 29
91 53 150 16 38 21 -1 7 -48z m1121 -265 c-10 -9 -11 -8 -5 6 3 10 9 15 12 12
3 -3 0 -11 -7 -18z m-31 -48 c0 -6 -4 -7 -10 -4 -5 3 -10 11 -10 16 0 6 5 7
10 4 6 -3 10 -11 10 -16z m-1190 -24 c0 -8 -4 -15 -10 -15 -5 0 -10 7 -10 15
0 8 5 15 10 15 6 0 10 -7 10 -15z m-33 -67 c-3 -8 -6 -5 -6 6 -1 11 2 17 5 13
3 -3 4 -12 1 -19z m58 -128 c3 -5 1 -10 -4 -10 -6 0 -11 5 -11 10 0 6 2 10 4
10 3 0 8 -4 11 -10z"/>
<path d="M2335 3930 c27 -12 43 -12 25 0 -8 5 -22 9 -30 9 -10 0 -8 -3 5 -9z"/>
<path d="M2834 3795 c-6 -36 5 -63 23 -52 11 7 4 75 -8 82 -4 3 -11 -11 -15
-30z"/>
<path d="M1501 3564 c0 -11 3 -14 6 -6 3 7 2 16 -1 19 -3 4 -6 -2 -5 -13z"/>
<path d="M3204 3158 c-4 -6 1 -17 11 -25 22 -16 35 -17 35 -3 0 6 -4 10 -10
10 -5 0 -10 7 -10 15 0 18 -16 20 -26 3z"/>
<path d="M3190 3079 c0 -18 2 -19 15 -9 15 12 12 30 -6 30 -5 0 -9 -10 -9 -21z"/>
<path d="M2748 3055 c-4 -4 -56 -9 -115 -10 -71 -2 -121 -8 -146 -19 -30 -12
-42 -13 -57 -3 -16 9 -22 8 -34 -8 -18 -24 -20 -35 -6 -35 6 0 10 -11 10 -24
0 -32 43 -61 69 -46 26 13 78 13 86 -1 9 -14 -23 -49 -39 -43 -7 3 -19 -2 -26
-11 -7 -8 -21 -15 -31 -15 -10 0 -21 -5 -24 -11 -4 -6 -13 -8 -20 -6 -7 3 -27
-8 -44 -24 -18 -16 -38 -29 -46 -29 -7 0 -17 -14 -20 -32 -6 -27 -3 -35 21
-55 36 -28 46 -29 69 -3 10 11 23 20 29 19 25 -3 36 2 36 16 0 28 57 52 126
54 35 1 64 -1 64 -4 0 -3 -20 -14 -44 -26 -25 -11 -47 -27 -50 -34 -3 -8 -23
-26 -46 -40 -22 -14 -40 -32 -40 -40 0 -24 36 -17 53 9 15 22 98 76 118 76 10
0 39 -58 39 -78 0 -12 10 -13 58 -6 78 12 144 10 225 -7 48 -9 73 -10 84 -3
23 14 28 34 9 34 -9 0 -16 5 -16 10 0 6 4 10 9 10 5 0 12 7 15 16 8 20 -20 54
-44 54 -9 0 -20 4 -25 9 -23 21 -235 61 -322 61 -18 0 -51 6 -73 12 -32 10
-40 18 -40 36 0 15 7 26 19 29 10 2 23 15 29 28 8 18 24 26 68 35 31 7 71 21
88 31 33 20 114 26 144 10 25 -13 92 -23 92 -14 0 18 -69 53 -125 63 -111 21
-120 22 -127 15z m-208 -215 c0 -5 -4 -10 -10 -10 -5 0 -10 5 -10 10 0 6 5 10
10 10 6 0 10 -4 10 -10z m257 -76 c-3 -3 -12 -4 -19 -1 -8 3 -5 6 6 6 11 1 17
-2 13 -5z m-42 -54 c3 -5 -1 -10 -10 -10 -9 0 -13 5 -10 10 3 6 8 10 10 10 2
0 7 -4 10 -10z"/>
<path d="M3258 3018 c-6 -34 1 -48 23 -48 17 0 20 6 17 32 -4 40 -33 51 -40
16z"/>
<path d="M3369 3018 c-1 -7 -2 -29 -4 -48 -1 -19 -4 -41 -6 -49 -2 -8 3 -16
12 -18 21 -5 31 34 23 87 -6 37 -23 56 -25 28z"/>
<path d="M3185 3000 c-3 -5 -1 -10 4 -10 6 0 11 5 11 10 0 6 -2 10 -4 10 -3 0
-8 -4 -11 -10z"/>
<path d="M3078 2959 c-21 -22 -23 -30 -6 -26 7 1 20 -20 29 -46 15 -46 69
-106 95 -107 11 0 44 -42 44 -54 0 -3 -6 -3 -14 0 -8 3 -17 1 -21 -5 -3 -6 0
-11 8 -11 8 0 18 -12 21 -26 7 -25 51 -74 67 -74 32 0 59 122 33 148 -7 7 -11
19 -8 27 6 16 -16 75 -28 75 -5 0 -8 -13 -8 -30 0 -38 -35 -43 -44 -6 -3 14
-19 37 -35 53 -23 24 -26 31 -15 41 17 15 17 22 3 42 -6 8 -12 11 -15 5 -17
-39 -23 -40 -49 -12 -30 31 -34 32 -57 6z"/>
<path d="M3317 2963 c-4 -3 -7 -19 -7 -35 0 -40 24 -31 28 10 3 30 -6 41 -21
25z"/>
<path d="M2350 2941 c0 -12 5 -21 10 -21 6 0 10 6 10 14 0 8 -4 18 -10 21 -5
3 -10 -3 -10 -14z"/>
<path d="M3320 2860 c0 -5 7 -10 16 -10 8 0 12 5 9 10 -3 6 -10 10 -16 10 -5
0 -9 -4 -9 -10z"/>
<path d="M3446 2843 c-11 -11 -6 -23 9 -23 8 0 15 4 15 9 0 13 -16 22 -24 14z"/>
<path d="M3299 2563 c-13 -34 -6 -38 25 -18 31 21 33 31 5 38 -15 4 -23 -1
-30 -20z"/>
<path d="M2470 2568 c1 -18 47 -50 67 -46 28 5 24 22 -8 41 -36 20 -59 22 -59
5z"/>
<path d="M3454 2528 c9 -56 15 -62 37 -42 24 22 24 39 -1 64 -32 32 -43 25
-36 -22z"/>
<path d="M3336 2523 c-14 -4 -17 -11 -12 -35 3 -17 1 -37 -5 -44 -14 -17 -3
-34 23 -34 14 0 18 5 15 15 -4 8 -2 17 4 21 6 4 4 13 -7 25 -15 17 -15 19 0
25 9 3 16 12 16 20 0 14 -2 15 -34 7z"/>
<path d="M3406 2451 c-7 -11 22 -60 36 -61 20 -1 17 25 -5 47 -16 16 -27 21
-31 14z"/>
<path d="M3315 2320 c3 -5 12 -10 20 -10 8 0 17 5 20 10 4 6 -5 10 -20 10 -15
0 -24 -4 -20 -10z"/>
<path d="M2350 2300 c0 -5 5 -10 10 -10 6 0 10 5 10 10 0 6 -4 10 -10 10 -5 0
-10 -4 -10 -10z"/>
<path d="M3181 2017 c-19 -19 -12 -37 14 -37 18 0 25 5 25 19 0 23 -23 34 -39
18z"/>
<path d="M3110 1666 c0 -9 5 -16 10 -16 6 0 10 4 10 9 0 6 -4 13 -10 16 -5 3
-10 -1 -10 -9z"/>
<path d="M3110 1615 c0 -8 4 -15 10 -15 5 0 7 7 4 15 -4 8 -8 15 -10 15 -2 0
-4 -7 -4 -15z"/>
<path d="M3090 1530 c0 -5 5 -10 11 -10 5 0 7 5 4 10 -3 6 -8 10 -11 10 -2 0
-4 -4 -4 -10z"/>
<path d="M2645 1410 c-3 -5 -1 -10 4 -10 6 0 11 5 11 10 0 6 -2 10 -4 10 -3 0
-8 -4 -11 -10z"/>
<path d="M2900 4900 c0 -13 7 -20 20 -20 13 0 17 5 14 14 -9 24 -34 28 -34 6z"/>
<path d="M2958 4873 c7 -3 16 -2 19 1 4 3 -2 6 -13 5 -11 0 -14 -3 -6 -6z"/>
<path d="M1588 4643 c7 -3 16 -2 19 1 4 3 -2 6 -13 5 -11 0 -14 -3 -6 -6z"/>
<path d="M1270 3840 c0 -5 7 -10 15 -10 8 0 15 5 15 10 0 6 -7 10 -15 10 -8 0
-15 -4 -15 -10z"/>
<path d="M3998 2953 c-4 -36 10 -94 28 -113 12 -12 14 -10 14 20 0 42 -17 107
-30 115 -5 3 -10 -7 -12 -22z"/>
<path d="M3820 2825 c-17 -46 -9 -61 16 -28 11 15 17 16 43 6 27 -10 31 -9 31
7 0 10 -9 20 -22 23 -13 2 -31 8 -40 12 -13 5 -20 0 -28 -20z"/>
<path d="M4046 2748 c3 -18 10 -42 15 -53 8 -19 8 -19 8 1 1 36 -11 84 -21 84
-6 0 -7 -14 -2 -32z"/>
<path d="M3795 2691 c-6 -11 9 -23 19 -14 9 9 7 23 -3 23 -6 0 -12 -4 -16 -9z"/>
<path d="M4112 2635 c0 -16 2 -22 5 -12 2 9 2 23 0 30 -3 6 -5 -1 -5 -18z"/>
<path d="M4086 2534 c-4 -9 -4 -19 -1 -22 2 -3 7 3 11 12 4 9 4 19 1 22 -2 3
-7 -3 -11 -12z"/>
<path d="M4039 2453 c-13 -16 -12 -17 4 -4 9 7 17 15 17 17 0 8 -8 3 -21 -13z"/>
</g>
</svg>
