<svg xmlns="http://www.w3.org/2000/svg" width="752.625" height="255.875" viewBox="0 0 752.625 255.875">
  <defs>
    <style>
      .cls-1 {
        fill: #fff;
        fill-rule: evenodd;
      }
    </style>
  </defs>
  <path id="VIDEO_EDITING" data-name="VIDEO EDITING" class="cls-1" d="M226.568,28.088H206.319l-3.037,28.461L200.47,28.088H180.221l11.812,61.758h22.611Zm8.324-7.312H171.784l14.624,76.27h33.86ZM216.781,92.433H189.9L177.071,25.275h25.874l0.45,5.85,0.674-5.85h25.536Zm73.8-2.7V28.088H274.833V89.734h15.749Zm5.4,7.312V20.776H269.546v76.27h26.436Zm-23.174-4.5V25.275h19.8V92.546h-19.8Zm87.185-42.522v18h3.937a9,9,0,0,0-.225-18h-3.712Zm4.5,4.612a4.264,4.264,0,0,1,3.6,4.275,4.418,4.418,0,0,1-3.6,4.5V54.636Zm-26.66-26.548V89.734h26.435c16.537,0,30.148-13.949,30.148-30.823A30.655,30.655,0,0,0,363.93,28.088h-26.1Zm19.461,42.635V47.211h6.412a11.759,11.759,0,0,1,.225,23.511h-6.637ZM330.632,20.776v76.27h33.635c20.587,0,37.348-17.211,37.348-38.135,0-21.036-16.874-38.135-37.685-38.135h-33.3Zm4.5,71.77V25.275h28.8a33.417,33.417,0,0,1,33.185,33.635c0,18.336-14.736,33.635-32.848,33.635H335.132ZM482.053,66.785V51.149H466.3V66.785h15.749Zm8.324,22.948V70.722H463.491V47.211h26.886V28.088H443.243V89.734h47.134Zm6.862,7.312V63.41h-8.212v-9h8.212V20.776H436.268v76.27h60.971Zm-56.584-4.5V25.275h52.309V49.911H484.64V68.023h8.324V92.546H440.655ZM582.064,59.473a8.068,8.068,0,0,0-8.212-7.987,8.24,8.24,0,0,0-8.324,7.987,8.222,8.222,0,0,0,8.324,7.874A8.047,8.047,0,0,0,582.064,59.473Zm-4.612,0a3.5,3.5,0,0,1-3.6,3.262,3.574,3.574,0,0,1-3.6-3.262,3.508,3.508,0,0,1,3.6-3.375A3.439,3.439,0,0,1,577.452,59.473ZM610.3,58.011c0-18.9-16.424-34.423-36.448-34.423s-36.335,15.524-36.335,34.423c0,19.011,16.312,34.535,36.335,34.535S610.3,77.022,610.3,58.011Zm-25.423,1.462a11.034,11.034,0,0,1-22.049,0A11.027,11.027,0,0,1,584.877,59.473Zm32.848-1.462c0-23.061-19.8-41.847-43.873-41.847-24.185,0-43.872,18.786-43.872,41.847s19.687,41.96,43.872,41.96C597.926,99.97,617.725,81.072,617.725,58.011Zm-4.613,0c0,20.474-17.773,37.348-39.26,37.348-21.6,0-39.147-16.874-39.147-37.347s17.549-37.122,39.147-37.122C595.339,20.888,613.112,37.537,613.112,58.011ZM94.763,221.608V195.545H68.513v26.063h26.25Zm13.875,38.25V228.17H63.825V188.982h44.813V157.107H30.075V259.858h78.563Zm11.438,12.188V215.982H106.388v-15h13.688V144.919H18.45V272.046H120.076Zm-94.314-7.5V152.419h87.189v41.063H99.076V223.67h13.875v40.876H25.762Zm159.75-70.876v30h6.562c7.876,0,14.438-6.938,14.438-15.188A14.843,14.843,0,0,0,191.7,193.67h-6.187Zm7.5,7.687a7.107,7.107,0,0,1,6,7.125c0,3.75-2.625,7.125-6,7.5V201.357Zm-44.438-44.25V259.858h44.063c27.563,0,50.251-23.25,50.251-51.376,0-28.312-22.688-51.375-50.814-51.375h-43.5Zm32.438,71.063V188.982H191.7a19.446,19.446,0,0,1,19.313,19.5c0,10.688-8.437,19.688-18.938,19.688H181.012Zm-44.438-83.251V272.046h56.063c34.313,0,62.251-28.688,62.251-63.564,0-35.063-28.126-63.563-62.814-63.563h-55.5Zm7.5,119.627V152.419h48c30.563,0,55.314,25.125,55.314,56.063,0,30.563-24.563,56.064-54.751,56.064H144.074Zm162.373-4.688V157.107H280.2V259.858h26.251Zm9,12.188V144.919H271.384V272.046h44.063Zm-38.626-7.5V152.419h33V264.546h-33Zm136.687-75.564V157.107H343.382v31.875h18.563V259.67h33V188.982h18.563Zm11.25,12V144.919H331.944v56.063h18.563v71.064h55.876V200.982h18.375Zm-25.5-7.5v71.064H357.632V193.482H339.069V152.607h78.564v40.875H399.257Zm77.062,66.376V157.107h-26.25V259.858h26.25Zm9,12.188V144.919H441.257V272.046H485.32Zm-38.626-7.5V152.419h33V264.546h-33Zm174.937-4.688V157.107h-35.25v19.687c-14.063-12.187-32.438-19.687-55.314-19.687H514.005V259.858h35.25V195.732c20.625,10.313,34.126,31.5,37.313,55.876v8.25h35.063Zm12.188,12.188V144.919H574.193v9.375c-12.75-6.375-26.25-9.375-43.126-9.375h-29.25V272.046h59.626V221.233A63.831,63.831,0,0,1,574.38,252.17v19.876h59.439Zm-51.751-7.5V252.17c-3-19.875-12.938-38.25-28.313-48.563v60.939h-44.25V152.419h21.562c19.876,0,37.126,5.625,50.814,15v-15h44.25V264.546H582.068Zm177-4.688v-64.5h-51v26.251H728.13v6.562H703.943a40.445,40.445,0,0,1,0-39.188h55.125V157.107H682.192a76.606,76.606,0,0,0-.187,102.751h77.063Zm12,12.188V144.919H676.942c-16.688,18-26.625,40.5-26.625,63.563,0,22.876,9.937,45.188,26.438,63.564h94.313Zm-91.126-7.5c-13.875-15.376-22.125-35.063-22.125-56.064s8.438-40.688,22.313-56.063h83.438V264.546H679.942Z" transform="translate(-18.438 -16.156)"/>
</svg>
